<svg width="23" height="28"  fill="none" xmlns="http://www.w3.org/2000/svg" viewBox="0 0 23 28">
<path fill-rule="evenodd" clip-rule="evenodd" d="M22.4079 6.17729V6.18129C22.4133 6.20796 22.4146 6.23596 22.4146 6.26396V26.8906C22.4146 27.1346 22.2173 27.332 21.9733 27.332H0.774585C0.530585 27.332 0.333252 27.1346 0.333252 26.8906V1.10796C0.333252 0.863959 0.530585 0.666626 0.774585 0.666626H16.8186C16.8453
 0.670626 16.8973 0.674626H16.9066C16.9439 0.682626 16.9786 0.695959 17.0133 0.713293C17.0173 0.715293 17.0213 0.717628 17.0253 0.719962C17.0293 0.722295 17.0333 0.724627 17.0373 0.726626C17.0706 0.745293 17.1026 0.767959
 17.1306 0.795959L22.2866 5.95063C22.3146 5.97996 22.3373 6.01196 22.3559 6.04529C22.3613 6.05329 22.3653 6.06129
22.3999 6.13996 22.4079 6.1772972.19992 25.4653H20.5493V6.85463L16.2279 2.53329H2.19992V25.4653ZM17.864
16.5334V14.0427H5.32129V16.5334H17.864ZM5.32129 9.01074V11.5014H17.864V9.01074H5.32129ZM13.2 21.5667V19.0761H5.32129V21.5667H13.2Z"    fill="#0072BA" />
</svg>
