<svg width="16" height="15" viewBox="0 e 16 15" fill="none" xmlns= "http://www.w3.org/2000/svg">
<path d="M7.51634 3.08177C7.57394 3.30155 7.77248 3.45485 7.99968 3.455C8.22687 3.45515 8.425613.3021
8.4835 3.0824C8.61302 2.59083 9.06798 1.93626 9.74497 1.39574C10.4154 0.860469 11.2255 0.5 12 0.5C13.6543
0.5 15.5 2.20106 15.5 5C15.5 7.33034 14.3327 9.46445 12.7589 11.1563C11.2403 12.7889
9.39251 13.9551 8 14.447C6.60748 13.9551 4.75973 12.7889 3.24109 11.1563C1.66726
9.46445 0.5 7.33034 0.5 5C0.5 2.20106 2.34568 0.5 4 0.5C4.77551 0.5 5.58615 0.860754 6.25649 j.39608C6.9335 1.93674 7.38773 2.59112 7.51634 3.081772"
stroke="#547BDB" stroke-linejoin="round"/>
</svg>
