<svg width="24" height="24" viewBox="0 0 24 24" fill="none" xmlns="http://www.w3.org/2000/svg">
<g clip-path="url(#clip0_465_6658）">
<path d="M1.334 20.581H22.667C23.402 20.581 24.001 19.983
24.001 19. 247V18.796C24.001 18.511 23.769 18.279 23.484
18.279H21. 686V4.495C21.686 3.947 21.24 3.5 20.691
3.53.309C2.761 3.5 2.314 3.946
2.314 4.495V18.28H0.517C0.232 18.28 0 18.512 © 18.797V19.248C0 19.983 0.598 20.582 1.334 20.582V20.581ZM3.851 5.166C3.851
4.985 3.998 4.839 4.178 4.839H19.821C20.002 4.839 20.148 4.986 20.148 5.166V18.267H3.851V5.166Z"
fill="#0072BA" />
<path d="M14.1947 12.0269H13.4423C13.1994 12.0269 13.0018 11.8293 13.0018 11.5865V11.4332C13.6947
    10.9827 14.1325 10.0995 14.1325
    9.11984C14.1325 7.6752 13.1759 6.5 12 6.5C10.8241 6.5 9.86746 7.6752 9.86746 9.11984C9.86746 10.0997 10.3053 10.9829 10.9982
    11.4332V11.5865C10.9982 11.8293 10.8006 12.0269 10.5577 12. 0269H9.80552C8.80995 12.0269 8 12.8368 8 13.8324V15. 3143C8 15.4986
    8.14946 15.6478 8.33347 15.6478H15.6665C15.8508 15.6478 16 15.4983 16 15.3143V13.8324C16 12.8368 15.1903
    12.0269 14.1947 12.02697" fill="#0072BA" />
</g>
<defs>
<clipPath id="clipe _465_6658">
<rect width="24.001" height="24" fill="white"/>
</clipPath>
</defs>
</svg>
